# xmcd CD database file
#
# Track frame offsets:
#	150
#	14659
#	32164
#	49782
#	59398
#	90435
#	104688
#	122090
#	140022
#	156614
#	179007
#	201734
#
# Disc length: 2803 seconds
#
# Revision: 0
# Processed by: cddbd v1.5.2PL0 Copyright (c) Steve Scherf et al.
# Submitted via: Feurio! 1.68 - http://www.feurio.com
#
DISCID=bc0af10c
DTITLE=Rick Moore and Mr Lucky - Satisfied (2000)
DYEAR=2000
DGENRE=
TTITLE0=Satisfied Man
TTITLE1=Better Off With The Blues
TTITLE2=Take It Down To Memphis
TTITLE3=Good Man Gone Bad
TTITLE4=(I Wanna) Get Funky
TTITLE5=Hello Darkness
TTITLE6=Come And Go With Me
TTITLE7=She's Allright
TTITLE8=Act Of Faith
TTITLE9=Memphis Stripper
TTITLE10=Sell My Monkey
TTITLE11=Fire In The Delta
EXTD=
EXTT0=
EXTT1=
EXTT2=
EXTT3=
EXTT4=
EXTT5=
EXTT6=
EXTT7=
EXTT8=
EXTT9=
EXTT10=
EXTT11=
PLAYORDER=
